<?xml version="1.0" encoding="UTF-8" standalone="no"?>
<!-- Created with Inkscape (http://www.inkscape.org/) -->

<svg
   xmlns:dc="http://purl.org/dc/elements/1.1/"
   xmlns:cc="http://creativecommons.org/ns#"
   xmlns:rdf="http://www.w3.org/1999/02/22-rdf-syntax-ns#"
   xmlns:svg="http://www.w3.org/2000/svg"
   xmlns="http://www.w3.org/2000/svg"
   xmlns:sodipodi="http://sodipodi.sourceforge.net/DTD/sodipodi-0.dtd"
   xmlns:inkscape="http://www.inkscape.org/namespaces/inkscape"
   width="256"
   height="256"
   viewBox="0 0 256 256"
   id="svg4135"
   version="1.1"
   inkscape:version="0.91 r13725"
   sodipodi:docname="processor.svg">
  <defs
     id="defs4137" />
  <sodipodi:namedview
     id="base"
     pagecolor="#ffffff"
     bordercolor="#666666"
     borderopacity="1.0"
     inkscape:pageopacity="0.0"
     inkscape:pageshadow="2"
     inkscape:zoom="1"
     inkscape:cx="47.408549"
     inkscape:cy="135.20631"
     inkscape:document-units="px"
     inkscape:current-layer="layer1"
     showgrid="true"
     units="px"
     inkscape:window-width="1280"
     inkscape:window-height="687"
     inkscape:window-x="0"
     inkscape:window-y="1"
     inkscape:window-maximized="1"
     inkscape:snap-object-midpoints="true">
    <inkscape:grid
       type="xygrid"
       id="grid4683" />
  </sodipodi:namedview>
  <metadata
     id="metadata4140">
    <rdf:RDF>
      <cc:Work
         rdf:about="">
        <dc:format>image/svg+xml</dc:format>
        <dc:type
           rdf:resource="http://purl.org/dc/dcmitype/StillImage" />
        <dc:title></dc:title>
      </cc:Work>
    </rdf:RDF>
  </metadata>
  <g
     inkscape:label="Layer 1"
     inkscape:groupmode="layer"
     id="layer1"
     transform="translate(0,-796.36216)">
    <g
       id="g4799"
       transform="translate(-12,-8.0000226)">
      <path
         id="rect4689"
         transform="translate(0,796.36216)"
         d="M 96.878906,76 C 87.527719,76 80,83.527719 80,92.878906 l 0,86.242184 C 80,188.47228 87.527719,196 96.878906,196 l 86.242184,0 C 192.47228,196 200,188.47228 200,179.12109 l 0,-86.242184 C 200,83.527719 192.47228,76 183.12109,76 L 96.878906,76 Z M 100,86 l 80,0 c 5.53999,0 10,4.460013 10,10 l 0,80 c 0,5.53999 -4.46001,10 -10,10 l -80,0 c -5.539987,0 -10,-4.46001 -10,-10 l 0,-80 c 0,-5.539987 4.460013,-10 10,-10 z"
         style="fill:#000000;fill-opacity:1;stroke:#000000;stroke-width:4;stroke-miterlimit:4;stroke-dasharray:none"
         inkscape:connector-curvature="0" />
      <rect
         ry="5"
         y="837.36218"
         x="125"
         height="30"
         width="10"
         id="rect4756"
         style="fill:#000000;fill-opacity:1;stroke:#000000;stroke-width:4;stroke-miterlimit:4;stroke-dasharray:none" />
      <rect
         ry="5"
         y="837.36218"
         x="145"
         height="30"
         width="10"
         id="rect4758"
         style="fill:#000000;fill-opacity:1;stroke:#000000;stroke-width:4;stroke-miterlimit:4;stroke-dasharray:none" />
      <rect
         ry="5"
         y="837.36218"
         x="165"
         height="30"
         width="10"
         id="rect4760"
         style="fill:#000000;fill-opacity:1;stroke:#000000;stroke-width:4;stroke-miterlimit:4;stroke-dasharray:none" />
      <rect
         style="fill:#000000;fill-opacity:1;stroke:#000000;stroke-width:4;stroke-miterlimit:4;stroke-dasharray:none"
         id="rect4764"
         width="10"
         height="30"
         x="105"
         y="837.36218"
         ry="5" />
      <rect
         style="fill:#000000;fill-opacity:1;stroke:#000000;stroke-width:4;stroke-miterlimit:4;stroke-dasharray:none"
         id="rect4766"
         width="10"
         height="30"
         x="105"
         y="997.36218"
         ry="5" />
      <rect
         style="fill:#000000;fill-opacity:1;stroke:#000000;stroke-width:4;stroke-miterlimit:4;stroke-dasharray:none"
         id="rect4768"
         width="10"
         height="30"
         x="125"
         y="997.36218"
         ry="5" />
      <rect
         style="fill:#000000;fill-opacity:1;stroke:#000000;stroke-width:4;stroke-miterlimit:4;stroke-dasharray:none"
         id="rect4770"
         width="10"
         height="30"
         x="145"
         y="997.36218"
         ry="5" />
      <rect
         style="fill:#000000;fill-opacity:1;stroke:#000000;stroke-width:4;stroke-miterlimit:4;stroke-dasharray:none"
         id="rect4772"
         width="10"
         height="30"
         x="165"
         y="997.36218"
         ry="5" />
      <rect
         style="fill:#000000;fill-opacity:1;stroke:#000000;stroke-width:4;stroke-miterlimit:4;stroke-dasharray:none"
         id="rect4774"
         width="10"
         height="30"
         x="-907.36218"
         y="205"
         ry="5"
         transform="matrix(0,-1,1,0,0,0)" />
      <rect
         style="fill:#000000;fill-opacity:1;stroke:#000000;stroke-width:4;stroke-miterlimit:4;stroke-dasharray:none"
         id="rect4776"
         width="10"
         height="30"
         x="-927.36218"
         y="205"
         ry="5"
         transform="matrix(0,-1,1,0,0,0)" />
      <rect
         style="fill:#000000;fill-opacity:1;stroke:#000000;stroke-width:4;stroke-miterlimit:4;stroke-dasharray:none"
         id="rect4778"
         width="10"
         height="30"
         x="-947.36218"
         y="205"
         ry="5"
         transform="matrix(0,-1,1,0,0,0)" />
      <rect
         style="fill:#000000;fill-opacity:1;stroke:#000000;stroke-width:4;stroke-miterlimit:4;stroke-dasharray:none"
         id="rect4780"
         width="10"
         height="30"
         x="-967.36218"
         y="205"
         ry="5"
         transform="matrix(0,-1,1,0,0,0)" />
      <rect
         style="fill:#000000;fill-opacity:1;stroke:#000000;stroke-width:4;stroke-miterlimit:4;stroke-dasharray:none"
         id="rect4782"
         width="10"
         height="30"
         x="-907.36218"
         y="45"
         ry="5"
         transform="matrix(0,-1,1,0,0,0)" />
      <rect
         style="fill:#000000;fill-opacity:1;stroke:#000000;stroke-width:4;stroke-miterlimit:4;stroke-dasharray:none"
         id="rect4784"
         width="10"
         height="30"
         x="-927.36218"
         y="45"
         ry="5"
         transform="matrix(0,-1,1,0,0,0)" />
      <rect
         style="fill:#000000;fill-opacity:1;stroke:#000000;stroke-width:4;stroke-miterlimit:4;stroke-dasharray:none"
         id="rect4786"
         width="10"
         height="30"
         x="-947.36218"
         y="45"
         ry="5"
         transform="matrix(0,-1,1,0,0,0)" />
      <rect
         style="fill:#000000;fill-opacity:1;stroke:#000000;stroke-width:4;stroke-miterlimit:4;stroke-dasharray:none"
         id="rect4788"
         width="10"
         height="30"
         x="-967.36218"
         y="45"
         ry="5"
         transform="matrix(0,-1,1,0,0,0)" />
      <rect
         transform="matrix(0,-1,1,0,0,0)"
         ry="5"
         y="45"
         x="-967.36218"
         height="30"
         width="10"
         id="rect4762"
         style="fill:#000000;fill-opacity:1;stroke:#000000;stroke-width:4;stroke-miterlimit:4;stroke-dasharray:none" />
      <rect
         ry="5"
         y="892.36218"
         x="100"
         height="80"
         width="80"
         id="rect4797"
         style="fill:#000000;fill-opacity:1;stroke:#000000;stroke-width:4;stroke-miterlimit:4;stroke-dasharray:none" />
    </g>
  </g>
</svg>
